<?xml version="1.0" encoding="UTF-8"?>
<svg id="Camada_1" data-name="Camada 1" xmlns="http://www.w3.org/2000/svg" viewBox="0 0 2520.13 1080">
  <defs>
    <style>
      .cls-1 {
        fill: #fff;
      }
    </style>
  </defs>
  <g>
    <path class="cls-1" d="M927.77,712.29c0-6.57-5.28-8.54-11.93-8.54h-17.83v17.03h17.53c8.23,0,12.23-2.94,12.23-8.49Z"/>
    <path class="cls-1" d="M915.44,727.33h-17.43v20.52h18.21c6.74,0,13.79-2.05,13.79-10.19,0-6.87-5.42-10.33-14.56-10.33Z"/>
    <path class="cls-1" d="M527.54,0C236.65,0,0,242.24,0,540s236.65,540,527.54,540,527.52-242.24,527.52-540S818.4,0,527.54,0ZM258.19,394.67h-13.85c-7.56,0-13.23,1.88-16.87,5.59-6.22,6.33-5.87,16.95-5.61,24.69l.05,1.76c.02.64.03,63.17.03,84.34,0,2.25,1.82,4.05,4.07,4.05h26.46c2.24,0,4.07,1.83,4.07,4.07v60.31c0,2.24-1.83,4.07-4.07,4.07h-26.46c-2.25,0-4.07,1.82-4.07,4.07v69.92c0,2.25-1.82,4.07-4.07,4.07h-71.23c-2.25,0-4.07-1.83-4.07-4.07v-69.92c0-2.25-1.83-4.07-4.07-4.07h-26.45c-2.25,0-4.07-1.83-4.07-4.07v-60.31c0-2.25,1.82-4.07,4.07-4.07h26.45c2.25,0,4.07-1.82,4.07-4.07v-122.39c0-39.75,22.88-61.95,66.16-64.22.34-.02.8-.03,1.37-.03,7.11,0,30.47,1.33,39.2,1.84,1.92.12,3.5,1.55,3.78,3.46l9.12,60.3c.38,2.46-1.53,4.68-4.02,4.68ZM512.69,657.55c0,2.25-1.82,4.07-4.07,4.07h-76.02c-2.25,0-4.07-1.82-4.07-4.07v-139.43c0-9.45-.53-20.3-4.5-29.06-1.82-3.72-4.23-6.79-7.16-9.07-4.76-3.74-10.92-5.54-18.81-5.54-14.67,0-26.03,5.04-29.64,13.16-4.13,8.82-4.13,20.85-4.13,30.52v139.43c0,2.25-1.83,4.07-4.07,4.07h-76.02c-2.25,0-4.07-1.82-4.07-4.07v-246.76c0-2.25,1.82-4.07,4.07-4.07h71.23c2.25,0,4.07,1.82,4.07,4.07v6.87c0,1.63,1.83,2.6,3.17,1.68,57.41-39.52,113.3,4.36,113.88,4.82,2.03,1.59,3.97,3.29,5.74,5.05h0c25.99,26.15,30.37,47.32,30.37,84.89v143.45ZM662.41,659.78c-8.74.51-32.09,1.84-39.2,1.84-.57,0-1.03,0-1.37-.03-43.28-2.27-66.16-24.48-66.16-64.22v-122.39c0-2.25-1.83-4.07-4.07-4.07h-26.45c-2.25,0-4.07-1.82-4.07-4.07v-60.31c0-2.24,1.82-4.07,4.07-4.07h26.45c2.25,0,4.07-1.82,4.07-4.07v-69.92c0-2.25,1.82-4.07,4.07-4.07h71.23c2.25,0,4.07,1.83,4.07,4.07v69.92c0,2.25,1.82,4.07,4.07,4.07h26.46c2.24,0,4.07,1.83,4.07,4.07v60.31c0,2.25-1.83,4.07-4.07,4.07h-26.46c-2.25,0-4.07,1.8-4.07,4.05,0,21.16-.01,83.7-.04,84.34l-.05,1.76c-.26,7.75-.62,18.36,5.61,24.69,3.64,3.71,9.32,5.59,16.87,5.59h13.85c2.49,0,4.4,2.23,4.03,4.68l-9.12,60.3c-.28,1.9-1.86,3.34-3.78,3.46ZM676.33,754.92c-4.79,0-8.11-4-8.11-8.44s3.32-8.43,8.11-8.43,7.93,3.87,7.93,8.43-3.27,8.44-7.93,8.44ZM760.6,754.39h-8.09v-27.23h-34.44v27.23h-8.08v-57.21h8.08v23.13h34.44v-23.13h8.09v57.21ZM850.55,729.61c0,18.61-9.72,26-25.17,26s-25.28-7.54-25.28-25.37v-33.05h8.09v32.52c0,14.99,8.81,19.12,17.49,19.12,10.48,0,16.8-4.95,16.8-19.12v-32.52h8.09v32.42ZM918.04,754.39h-28.04v-57.21h27.56c12.27,0,18.66,5.48,18.66,14.38,0,7.16-4.82,10.88-9.28,12.19,5.17,1.39,11.62,5.08,11.62,13.9,0,11.45-9.42,16.74-20.53,16.74ZM940.88,555.25h-178.53c-3.16,0-5.11,3.46-3.5,6.18,10.97,18.6,30.61,30.18,52.31,30.18,18.45,0,35.65-8.12,47.9-23.79.94-1.21,2.45-1.82,3.95-1.55l68.37,12.29c2.65.47,4.12,3.33,2.95,5.76-1.54,3.21-3.48,7.18-4.61,9.18l.05.03-1.13,1.87c-1.05,1.77-2.13,3.5-3.4,5.44-1.6,2.43-3.05,4.52-4.5,6.46l-.87,1.17-.07-.02c-.48.64-.97,1.27-1.46,1.89l-.76.94c-.95,1.18-1.87,2.27-2.79,3.34l-.8.93c-1.53,1.72-3.01,3.33-4.66,5.03l-.92.93c-1.07,1.07-2.16,2.14-3.25,3.17l-.33.32c-1.19,1.13-2.41,2.24-3.66,3.31l-1.36,1.15-1.54-1.35,1.33,1.52c-1.91,1.62-3.71,3.05-5.51,4.41l-1.53,1.13c-2.1,1.55-4.25,3.04-6.44,4.46l-.62.4c-2.52,1.61-5.06,3.13-7.63,4.55l-.74.42c-.62.33-1.23.66-1.86.99l-.43.22c-1.19.62-2.25,1.15-3.3,1.67l-.63.29c-2.41,1.16-4.68,2.18-6.94,3.12l-.46.18c-1.53.62-2.88,1.15-4.25,1.65l-1.65.6c-1.67.6-3.35,1.16-5.04,1.69l-.3.1c-1.82.56-3.73,1.1-5.91,1.67l-1.54.39c-3.89.96-7.78,1.74-11.65,2.35l-1.47.23c-4.11.59-8.17,1-12.21,1.22l-1.49.08c-2.43.1-4.39.15-6.25.15s-3.94-.05-6.28-.15c-.47-.02-.93-.05-1.39-.08l-.46-.03c-1.53-.09-3.06-.2-4.59-.34l-.48-.04c-.44-.04-.89-.08-1.34-.13-2.21-.24-4.17-.48-5.94-.74h-.06s-.06-.02-.09-.02l-1.08-.17c-1.65-.25-3.3-.55-4.92-.89l-1.76-.37c-1.46-.31-2.92-.64-4.37-1l-.46-.12c-.42-.1-.85-.2-1.27-.31-2.15-.56-4.04-1.08-5.76-1.62-1.93-.59-3.81-1.23-5.67-1.89-.44-.16-.89-.32-1.32-.49l-.34-.13c-1.37-.51-2.74-1.03-4.09-1.59l-.37-.15c-.42-.16-.84-.34-1.25-.51-1.81-.76-3.6-1.56-5.38-2.39l-.19-.1c-1.61-.75-3.35-1.64-5.07-2.56-.4-.22-.81-.44-1.21-.66l-.33-.18c-1.26-.69-2.52-1.4-3.77-2.14l-1.5-.89c-1.66-1.01-3.3-2.03-4.91-3.11-16.14-10.74-30.01-25.09-40.1-41.49-.85-1.37-1.67-2.76-2.47-4.16l-.35-.65c-.76-1.35-1.48-2.74-2.19-4.12l-.39-.76c-.22-.41-.43-.83-.64-1.25-2.56-5.19-4.83-10.74-6.74-16.47-1.07-3.2-1.88-5.88-2.54-8.44-.55-2.09-1.06-4.26-1.51-6.45-1.36-6.56-2.23-13.3-2.57-20.03-.12-2.26-.18-4.58-.18-6.87s.06-4.61.18-6.87c.61-11.82,2.83-23.58,6.63-34.92,1.25-3.73,2.5-7.06,3.83-10.17.77-1.79,1.59-3.56,2.44-5.31.2-.41.4-.83.61-1.24l.51-1.01c.2-.41.4-.83.62-1.23.22-.42.45-.84.68-1.26l1.17-2.16c.94-1.69,1.91-3.37,2.93-5.02,10.09-16.4,23.96-30.75,40.1-41.49,1.61-1.07,3.26-2.1,4.91-3.11l1.5-.89c1.25-.74,2.5-1.44,3.77-2.14l.33-.18c.4-.22.8-.44,1.22-.66,1.73-.91,3.46-1.8,5.23-2.64,1.8-.86,3.6-1.65,5.4-2.41.42-.17.84-.34,1.26-.51l.37-.15c1.36-.55,2.72-1.08,4.09-1.59l.39-.14c.42-.16.85-.32,1.27-.47,1.87-.66,3.75-1.3,5.65-1.89,1.93-.59,3.85-1.12,5.8-1.63.42-.11.84-.21,1.27-.31l.45-.11c1.45-.36,2.9-.68,4.37-1l1.02-.21c1.76-.37,4.65-.89,6.43-1.16l.32-.05s.06,0,.09,0h.06c1.78-.27,3.73-.51,5.94-.75.44-.04.9-.09,1.34-.13l.48-.04c1.51-.13,3.04-.25,4.58-.34l.37-.03c.49-.02.99-.06,1.48-.08,2.34-.11,4.39-.15,6.28-.15s3.83.05,6.18.15l1.49.08c4.11.23,8.17.64,12.14,1.21l1.62.25c3.86.61,7.74,1.39,11.53,2.32l1.66.42c2.16.56,4.07,1.1,5.81,1.64l.29.09c1.78.56,3.44,1.12,5.1,1.71.51.17,1.01.36,1.53.54,1.53.57,2.88,1.1,4.22,1.64l.67.27c2.19.91,4.51,1.94,6.86,3.07l.6.28c1.16.57,2.2,1.1,3.25,1.64l.36.18-.85,1.83,1.06-1.72c.64.34,1.26.66,1.87,1.01,2.3,1.28,6.01,3.48,8.24,4.89l.28.17c2.35,1.52,4.57,3.06,6.72,4.63l.36.27c.44.32.88.64,1.31.97,1.85,1.4,3.64,2.84,5.54,4.44l1.08.91c1.43,1.2,2.81,2.45,4.16,3.74l.35.34c1.09,1.03,2.17,2.08,3.23,3.14l.82.83c1.71,1.75,3.23,3.4,4.66,5.02l-1.32,1.55,1.54-1.31.71.83c.91,1.06,1.81,2.14,2.69,3.23l.85,1.05c1.04,1.3,2.05,2.62,3.04,3.96l.14.19c.81,1.07,1.6,2.17,2.34,3.29l1.46,2.2c.64.98,1.27,1.97,1.89,2.96l2.5,4.14-.04.02c5.04,8.81,9.04,18.12,11.89,27.7,3.66,12.27,5.51,24.95,5.52,37.69,0,7.35-.87,16.02-2.18,23.69-.34,1.97-2.03,3.4-4.03,3.4Z"/>
  </g>
  <g>
    <path class="cls-1" d="M2447.22,851.82c25.23,0,45.69-20.46,45.69-45.69s-20.46-45.69-45.69-45.69-45.69,20.46-45.69,45.69,20.46,45.69,45.69,45.69"/>
    <path class="cls-1" d="M1980.13,0C1681.9,0,1440.13,241.76,1440.13,540s241.77,540,540,540c169.03,0,319.9-77.68,418.91-199.27-24.46-15.83-40.69-43.3-40.69-74.6,0-49.08,39.79-88.86,88.86-88.86,14.3,0,27.77,3.46,39.74,9.46,21.45-58.19,33.17-121.1,33.17-186.74C2520.13,241.76,2278.37,0,1980.13,0ZM2280.71,576.08v213.43c-8.03,9.72-16.54,19.13-25.58,28.16-74.17,74.17-172.77,115.01-277.66,115.01-216.52,0-392.68-176.15-392.68-392.68s176.15-392.68,392.68-392.68c104.89,0,203.5,40.85,277.66,115.02l-125.77,125.77c-40.57-40.57-94.51-62.91-151.89-62.91-118.45,0-214.81,96.36-214.81,214.81s96.36,214.81,214.81,214.81c45.84,0,89.46-14.3,125.85-40.72v-174.09h177.4v36.08Z"/>
  </g>
</svg>