<?xml version="1.0" encoding="UTF-8"?>
<svg id="Camada_1" data-name="Camada 1" xmlns="http://www.w3.org/2000/svg" viewBox="0 0 1544.49 367.23">
  <defs>
    <style>
      .cls-1 {
        fill: #fff;
      }

      .cls-2 {
        font-family: Collegiate, Collegiate;
        font-size: 500px;
      }

      .cls-2, .cls-3 {
        fill: #181616;
      }

      .cls-4 {
        fill: #2563eb;
      }

      .cls-5 {
        opacity: .8;
      }

      .cls-5, .cls-6, .cls-7 {
        fill: none;
        stroke: #2563eb;
        stroke-linecap: round;
        stroke-width: 24px;
      }

      .cls-5, .cls-7 {
        isolation: isolate;
      }

      .cls-7 {
        opacity: .6;
      }
    </style>
  </defs>
  <g>
    <rect class="cls-3" width="314.77" height="367.23" rx="12" ry="12"/>
    <path class="cls-1" d="M36.07,52.46h209.85c7.24,0,13.12,5.87,13.12,13.12h0c0,7.24-5.87,13.12-13.12,13.12H36.07c-7.24,0-13.12-5.87-13.12-13.12h0c0-7.24,5.87-13.12,13.12-13.12Z"/>
    <path class="cls-1" d="M36.07,104.92h157.39c7.24,0,13.12,5.87,13.12,13.12h0c0,7.24-5.87,13.12-13.12,13.12H36.07c-7.24,0-13.12-5.87-13.12-13.12h0c0-7.24,5.87-13.12,13.12-13.12Z"/>
    <path class="cls-1" d="M36.07,157.39h183.62c7.24,0,13.12,5.87,13.12,13.12h0c0,7.24-5.87,13.12-13.12,13.12H36.07c-7.24,0-13.12-5.87-13.12-13.12h0c0-7.24,5.87-13.12,13.12-13.12Z"/>
    <path class="cls-1" d="M36.07,236.08h104.92c7.24,0,13.12,5.87,13.12,13.12h0c0,7.24-5.87,13.12-13.12,13.12H36.07c-7.24,0-13.12-5.87-13.12-13.12h0c0-7.24,5.87-13.12,13.12-13.12Z"/>
    <path class="cls-1" d="M36.07,288.54h144.27c7.24,0,13.12,5.87,13.12,13.12h0c0,7.24-5.87,13.12-13.12,13.12H36.07c-7.24,0-13.12-5.87-13.12-13.12h0c0-7.24,5.87-13.12,13.12-13.12Z"/>
    <path class="cls-4" d="M105.64,341h78.69c3.62,0,6.56,2.94,6.56,6.56h0c0,3.62-2.94,6.56-6.56,6.56h-78.69c-3.62,0-6.56-2.94-6.56-6.56h0c0-3.62,2.94-6.56,6.56-6.56Z"/>
    <path class="cls-6" d="M271.01,104.06c52.46,0,91.81,39.35,91.81,91.81"/>
    <path class="cls-5" d="M271.01,64.72c78.69,0,131.15,52.46,131.15,131.15"/>
    <path class="cls-7" d="M271.01,25.37c104.92,0,170.5,65.58,170.5,170.5"/>
  </g>
  <g>
    <text class="cls-2" transform="translate(488.49 348.12)"><tspan x="0" y="0">Maker</tspan></text>
    <polygon class="cls-4" points="1076.47 186.62 1121.47 124.12 1185.97 124.12 1118.97 210.12 1076.47 186.62"/>
  </g>
</svg>