<?xml version="1.0" encoding="UTF-8"?>
<svg id="Camada_1" xmlns="http://www.w3.org/2000/svg" version="1.1" xmlns:xlink="http://www.w3.org/1999/xlink" viewBox="0 0 1080 1920">
  <!-- Generator: Adobe Illustrator 30.0.0, SVG Export Plug-In . SVG Version: 2.1.1 Build 123)  -->
  <defs>
    <style>
      .st0 {
        fill: url(#Gradiente_sem_nome_5);
      }

      .st0, .st1 {
        fill-opacity: .1;
      }

      .st2, .st3 {
        fill: #fff;
      }

      .st3, .st4 {
        fill-rule: evenodd;
      }

      .st5 {
        opacity: .7;
      }

      .st4 {
        fill: #f50000;
      }

      .st6 {
        fill: url(#Gradiente_sem_nome);
      }

      .st7 {
        fill: url(#Gradiente_sem_nome_2);
        fill-opacity: .6;
      }

      .st8 {
        fill: url(#Gradiente_sem_nome_4);
      }

      .st9 {
        fill: url(#Gradiente_sem_nome_6);
      }

      .st1 {
        fill: url(#Gradiente_sem_nome_3);
      }
    </style>
    <linearGradient id="Gradiente_sem_nome" data-name="Gradiente sem nome" x1="0" y1="960" x2="1080" y2="960" gradientTransform="translate(0 1920) scale(1 -1)" gradientUnits="userSpaceOnUse">
      <stop offset="0" stop-color="#2563eb"/>
      <stop offset="1" stop-color="#ff0356"/>
    </linearGradient>
    <linearGradient id="Gradiente_sem_nome_2" data-name="Gradiente sem nome 2" x1="3.2" y1="119.9" x2="1018.8" y2="116.3" gradientTransform="translate(0 842)" gradientUnits="userSpaceOnUse">
      <stop offset="0" stop-color="#2563eb"/>
      <stop offset="1" stop-color="#ff0356"/>
    </linearGradient>
    <linearGradient id="Gradiente_sem_nome_3" data-name="Gradiente sem nome 3" x1="123.1" y1="864.9" x2="244.1" y2="864.9" gradientTransform="translate(0 842)" gradientUnits="userSpaceOnUse">
      <stop offset="0" stop-color="#00c4cc"/>
      <stop offset=".5" stop-color="#5a32fa"/>
      <stop offset="1" stop-color="#7d2ae8"/>
    </linearGradient>
    <linearGradient id="Gradiente_sem_nome_4" data-name="Gradiente sem nome 4" x1="-703.1" y1="-366.7" x2="567.3" y2="1397.8" gradientTransform="translate(0 842)" gradientUnits="userSpaceOnUse">
      <stop offset=".2" stop-color="#fff"/>
      <stop offset=".8" stop-color="#fff" stop-opacity="0"/>
    </linearGradient>
    <linearGradient id="Gradiente_sem_nome_5" data-name="Gradiente sem nome 5" x1="533" y1="864.9" x2="963.9" y2="864.9" gradientTransform="translate(0 842)" gradientUnits="userSpaceOnUse">
      <stop offset="0" stop-color="#00c4cc"/>
      <stop offset=".5" stop-color="#5a32fa"/>
      <stop offset="1" stop-color="#7d2ae8"/>
    </linearGradient>
    <linearGradient id="Gradiente_sem_nome_6" data-name="Gradiente sem nome 6" x1="-410.1" y1="-577.6" x2="860.3" y2="1186.9" gradientTransform="translate(0 842)" gradientUnits="userSpaceOnUse">
      <stop offset=".2" stop-color="#fff"/>
      <stop offset=".8" stop-color="#fff" stop-opacity="0"/>
    </linearGradient>
  </defs>
  <g>
    <rect class="st2" width="1080" height="1920" rx="22" ry="22"/>
    <rect class="st2" width="1080" height="1920" rx="22" ry="22"/>
  </g>
  <g class="st5">
    <rect class="st6" width="1080" height="1920" rx="22" ry="22"/>
    <rect class="st7" width="1080" height="1920" rx="22" ry="22"/>
  </g>
  <g>
    <path class="st3" d="M183.6,149c-15.8,0-17.8,0-24,.4-19.1,2.3-31.9,15.2-33.8,34-.3,6.2-.3,8.2-.3,24.1s0,17.9.3,24.1c1.4,18.2,14.3,30.8,33.8,34,6.2.3,8.2.4,24,.4,15.8-.2,17.3-.1,20.8-.4,19-1.1,34.9-14.1,37-34,.3-6.2.4-8.2.4-24.1s0-17.9-.4-24.1c-1.9-18.6-15.1-31.7-33.8-34-6.2-.3-8.2-.4-24-.4h0Z"/>
    <path class="st4" d="M183.8,163.3c-11.9,0-13.4,0-18.1.3-4.7.2-7.9,1-10.7,2-2.9,1.1-5.3,2.6-7.8,5.1s-3.9,4.9-5.1,7.8c-1.1,2.8-1.8,6-2,10.7-.2,4.7-.3,6.2-.3,18.1s0,13.4.3,18.1c.2,4.7,1,7.9,2,10.7,1.1,2.9,2.6,5.3,5.1,7.8s4.9,3.9,7.8,5.1c2.8,1.1,6,1.8,10.7,2,4.7.2,6.2.3,18.1.3s13.4,0,18.1-.3c4.7-.2,7.9-1,10.7-2,2.9-1.1,5.3-2.6,7.8-5.1s3.9-4.9,5.1-7.8c1.1-2.8,1.8-6,2-10.7.2-4.7.3-6.2.3-18.1s0-13.4-.3-18.1c-.2-4.7-1-7.9-2-10.7-1.1-2.9-2.6-5.3-5.1-7.8-2.4-2.4-4.9-3.9-7.8-5.1-2.8-1.1-6-1.8-10.7-2-4.7-.2-6.2-.3-18.1-.3ZM183.8,171.2c11.7,0,13.1,0,17.8.3,4.3.2,6.6.9,8.2,1.5,2.1.8,3.5,1.8,5.1,3.3s2.5,3,3.3,5.1c.6,1.6,1.3,3.9,1.5,8.2.2,4.6.3,6,.3,17.8s0,13.1-.3,17.8c-.2,4.3-.9,6.6-1.5,8.2-.8,2.1-1.8,3.5-3.3,5.1s-3,2.5-5.1,3.3c-1.5.6-3.9,1.3-8.2,1.5-4.7.2-6,.3-17.8.3s-13.1,0-17.8-.3c-4.3-.2-6.6-.9-8.2-1.5-2.1-.8-3.5-1.8-5.1-3.3-1.5-1.5-2.5-3-3.3-5.1-.6-1.5-1.3-3.9-1.5-8.2-.2-4.6-.2-6-.2-17.7s0-13.1.2-17.8c.2-4.3.9-6.6,1.5-8.2.8-2.1,1.8-3.5,3.3-5.1s3-2.5,5.1-3.3c1.5-.6,3.8-1.3,8.1-1.5,4.7-.2,6-.2,17.8-.2h.2c0,.1,0,.1,0,.1ZM183.8,184.7c-12.5,0-22.6,10.1-22.6,22.6s10.1,22.6,22.6,22.6,22.6-10.1,22.6-22.6-10.1-22.6-22.6-22.6ZM183.8,221.9c-8.1,0-14.6-6.6-14.6-14.6s6.6-14.6,14.6-14.6,14.6,6.6,14.6,14.6-6.6,14.6-14.6,14.6ZM212.5,183.8c0,2.9-2.4,5.3-5.3,5.3s-5.3-2.4-5.3-5.3,2.4-5.3,5.3-5.3,5.3,2.4,5.3,5.3Z"/>
  </g>
  <path class="st2" d="M183.6,1767.4c33.4,0,60.5-27.1,60.5-60.5s-27.1-60.5-60.5-60.5-60.5,27.1-60.5,60.5,27.1,60.5,60.5,60.5Z"/>
  <path class="st1" d="M183.6,1767.4c33.4,0,60.5-27.1,60.5-60.5s-27.1-60.5-60.5-60.5-60.5,27.1-60.5,60.5,27.1,60.5,60.5,60.5Z"/>
  <path class="st8" d="M183.6,1767.4c33.4,0,60.5-27.1,60.5-60.5s-27.1-60.5-60.5-60.5-60.5,27.1-60.5,60.5,27.1,60.5,60.5,60.5Z"/>
  <path class="st2" d="M332.3,1669.1c-20.9,0-37.8,16.9-37.8,37.8s16.9,37.8,37.8,37.8h592.4c20.9,0,37.8-16.9,37.8-37.8s-16.9-37.8-37.8-37.8H332.3Z"/>
  <path class="st0" d="M332.3,1669.1c-20.9,0-37.8,16.9-37.8,37.8s16.9,37.8,37.8,37.8h592.4c20.9,0,37.8-16.9,37.8-37.8s-16.9-37.8-37.8-37.8H332.3Z"/>
  <path class="st9" d="M332.3,1669.1c-20.9,0-37.8,16.9-37.8,37.8s16.9,37.8,37.8,37.8h592.4c20.9,0,37.8-16.9,37.8-37.8s-16.9-37.8-37.8-37.8H332.3Z"/>
  <g>
    <path class="st2" d="M373.1,225.7v-36.4h14.2c2.8,0,5.1.5,7.1,1.6,1.9,1,3.4,2.5,4.4,4.3,1,1.8,1.5,4,1.5,6.4s-.5,4.5-1.6,6.4c-1,1.8-2.5,3.3-4.5,4.3-2,1-4.3,1.6-7.1,1.6h-9.1v-6h7.9c1.5,0,2.8-.3,3.8-.8,1-.5,1.7-1.3,2.2-2.2.5-.9.7-2,.7-3.2s-.2-2.3-.7-3.2c-.5-.9-1.2-1.6-2.2-2.1-1-.5-2.3-.8-3.8-.8h-5.3v30.2h-7.4Z"/>
    <path class="st2" d="M405.3,225.7v-27.3h7.1v4.8h.3c.5-1.7,1.3-3,2.5-3.8,1.2-.9,2.5-1.3,4.1-1.3s.8,0,1.2,0c.4,0,.8.1,1.1.2v6.5c-.3-.1-.8-.2-1.4-.3-.6,0-1.2,0-1.8,0-1.1,0-2.1.2-3,.7-.9.5-1.6,1.1-2.1,2-.5.9-.7,1.9-.7,3v15.5h-7.3Z"/>
    <path class="st2" d="M436.8,226.2c-2.8,0-5.2-.6-7.2-1.7-2-1.1-3.6-2.8-4.7-4.9-1.1-2.1-1.6-4.6-1.6-7.5s.5-5.3,1.6-7.4c1.1-2.1,2.6-3.8,4.6-5,2-1.2,4.3-1.8,6.9-1.8s3.5.3,5,.9c1.5.6,2.9,1.4,4.1,2.6s2.1,2.6,2.7,4.3c.7,1.7,1,3.8,1,6.1v2.1h-22.9v-4.6h19.3l-3.4,1.2c0-1.4-.2-2.6-.6-3.7-.4-1-1.1-1.9-1.9-2.4-.9-.6-1.9-.9-3.2-.9s-2.3.3-3.2.9c-.9.6-1.6,1.4-2,2.4-.5,1-.7,2.1-.7,3.4v3.2c0,1.6.3,2.9.8,4,.5,1.1,1.3,1.9,2.2,2.4s2.1.8,3.3.8,1.6-.1,2.3-.4c.7-.2,1.3-.6,1.8-1.1.5-.5.9-1.1,1.1-1.8l6.6,1.2c-.4,1.5-1.2,2.8-2.3,3.9-1.1,1.1-2.5,2-4.1,2.6s-3.5.9-5.7.9ZM433.6,194.9l3.4-7.6h6.8l-5.1,7.6h-5.1Z"/>
    <path class="st2" d="M461,225.7l-10.1-27.3h7.8l4.6,14.2c.6,1.8,1,3.6,1.5,5.4s.8,3.7,1.3,5.6h-1.6c.4-1.9.8-3.8,1.2-5.6.4-1.8.9-3.6,1.4-5.4l4.5-14.2h7.7l-10.1,27.3h-8.3Z"/>
    <path class="st2" d="M487,194.8c-1.1,0-2.1-.4-2.8-1.1s-1.2-1.6-1.2-2.7.4-1.9,1.2-2.7,1.7-1.1,2.8-1.1,2.1.4,2.8,1.1c.8.7,1.2,1.6,1.2,2.7s-.4,1.9-1.2,2.7c-.8.7-1.7,1.1-2.8,1.1ZM483.3,225.7v-27.3h7.3v27.3h-7.3Z"/>
    <path class="st2" d="M504.5,226.2c-1.7,0-3.3-.3-4.7-.9-1.4-.6-2.5-1.5-3.2-2.7-.8-1.2-1.2-2.7-1.2-4.5s.3-2.8.8-3.8,1.3-1.8,2.3-2.5c1-.6,2.1-1.1,3.3-1.4,1.2-.3,2.5-.6,3.9-.7,1.6-.2,2.9-.3,3.8-.5,1-.1,1.7-.4,2.1-.7.4-.3.7-.7.7-1.3h0c0-.9-.2-1.6-.5-2.1-.3-.5-.8-.9-1.5-1.2-.6-.3-1.4-.4-2.3-.4s-1.8.1-2.5.4c-.7.3-1.3.7-1.7,1.1-.4.5-.8,1-1,1.6l-6.7-1.1c.5-1.6,1.3-2.9,2.3-4.1,1.1-1.1,2.4-2,4.1-2.5,1.6-.6,3.4-.9,5.5-.9s2.9.2,4.3.5c1.4.4,2.6.9,3.7,1.6s2,1.7,2.6,2.9c.6,1.2,1,2.6,1,4.2v18.4h-6.9v-3.8h-.2c-.4.8-1,1.6-1.8,2.2-.7.6-1.6,1.2-2.6,1.5-1,.4-2.2.6-3.6.6ZM506.5,221.1c1.2,0,2.2-.2,3-.7.9-.5,1.6-1.1,2-1.9s.7-1.7.7-2.6v-3c-.2.2-.5.3-1,.4-.4.1-.9.2-1.5.3s-1.1.2-1.6.3c-.5,0-1,.1-1.4.2-.9.1-1.7.3-2.4.6s-1.2.7-1.6,1.2c-.4.5-.6,1.1-.6,1.8s.2,1.3.5,1.8c.4.5.8.8,1.5,1.1.6.2,1.3.4,2.1.4Z"/>
    <path class="st2" d="M547.7,226.1c-2.1,0-4-.5-5.7-1.6-1.7-1.1-3-2.7-4-4.8-1-2.1-1.5-4.7-1.5-7.7s.5-5.7,1.5-7.8c1-2.1,2.4-3.6,4-4.7,1.7-1,3.5-1.6,5.5-1.6s2.8.3,3.9.8c1,.5,1.9,1.2,2.5,1.9.6.8,1.1,1.5,1.4,2.2h.2v-13.7h7.3v36.4h-7.2v-4.4h-.4c-.3.7-.8,1.5-1.5,2.2-.6.7-1.5,1.4-2.5,1.9s-2.3.8-3.8.8ZM549.9,220.2c1.2,0,2.3-.3,3.2-1s1.5-1.6,2-2.9c.5-1.2.7-2.7.7-4.3s-.2-3.1-.7-4.3c-.4-1.2-1.1-2.2-2-2.8-.9-.7-1.9-1-3.2-1s-2.4.4-3.2,1c-.9.7-1.5,1.7-2,2.9s-.7,2.6-.7,4.2.2,3,.7,4.2c.4,1.2,1.1,2.2,2,2.9.9.7,1.9,1,3.2,1Z"/>
    <path class="st2" d="M576.8,226.2c-1.7,0-3.3-.3-4.7-.9s-2.5-1.5-3.2-2.7c-.8-1.2-1.2-2.7-1.2-4.5s.3-2.8.8-3.8,1.3-1.8,2.3-2.5c1-.6,2.1-1.1,3.3-1.4,1.2-.3,2.5-.6,3.9-.7,1.6-.2,2.9-.3,3.8-.5,1-.1,1.7-.4,2.1-.7.4-.3.7-.7.7-1.3h0c0-.9-.2-1.6-.5-2.1-.3-.5-.8-.9-1.5-1.2-.6-.3-1.4-.4-2.3-.4s-1.8.1-2.5.4c-.7.3-1.3.7-1.7,1.1-.4.5-.8,1-1,1.6l-6.7-1.1c.5-1.6,1.3-2.9,2.3-4.1,1.1-1.1,2.4-2,4.1-2.5s3.4-.9,5.5-.9,2.9.2,4.3.5c1.4.4,2.6.9,3.7,1.6s2,1.7,2.6,2.9c.6,1.2,1,2.6,1,4.2v18.4h-6.9v-3.8h-.2c-.4.8-1,1.6-1.8,2.2-.7.6-1.6,1.2-2.6,1.5s-2.2.6-3.6.6ZM578.9,221.1c1.2,0,2.2-.2,3-.7.9-.5,1.6-1.1,2-1.9s.7-1.7.7-2.6v-3c-.2.2-.5.3-1,.4-.4.1-.9.2-1.5.3s-1.1.2-1.6.3c-.5,0-1,.1-1.4.2-.9.1-1.7.3-2.4.6s-1.2.7-1.6,1.2c-.4.5-.6,1.1-.6,1.8s.2,1.3.5,1.8c.4.5.8.8,1.5,1.1.6.2,1.3.4,2.1.4Z"/>
    <path class="st2" d="M617.7,226.2c-1.7,0-3.3-.3-4.7-.9s-2.5-1.5-3.2-2.7c-.8-1.2-1.2-2.7-1.2-4.5s.3-2.8.8-3.8,1.3-1.8,2.3-2.5c1-.6,2.1-1.1,3.3-1.4,1.2-.3,2.5-.6,3.9-.7,1.6-.2,2.9-.3,3.8-.5,1-.1,1.7-.4,2.1-.7.4-.3.7-.7.7-1.3h0c0-.9-.2-1.6-.5-2.1-.3-.5-.8-.9-1.5-1.2-.6-.3-1.4-.4-2.3-.4s-1.8.1-2.5.4c-.7.3-1.3.7-1.7,1.1-.4.5-.8,1-1,1.6l-6.7-1.1c.5-1.6,1.3-2.9,2.3-4.1,1.1-1.1,2.4-2,4.1-2.5s3.4-.9,5.5-.9,2.9.2,4.3.5c1.4.4,2.6.9,3.7,1.6s2,1.7,2.6,2.9c.6,1.2,1,2.6,1,4.2v18.4h-6.9v-3.8h-.2c-.4.8-1,1.6-1.8,2.2-.7.6-1.6,1.2-2.6,1.5s-2.2.6-3.6.6ZM619.8,221.1c1.2,0,2.2-.2,3-.7.9-.5,1.6-1.1,2-1.9s.7-1.7.7-2.6v-3c-.2.2-.5.3-1,.4-.4.1-.9.2-1.5.3s-1.1.2-1.6.3c-.5,0-1,.1-1.4.2-.9.1-1.7.3-2.4.6s-1.2.7-1.6,1.2c-.4.5-.6,1.1-.6,1.8s.2,1.3.5,1.8c.4.5.8.8,1.5,1.1.6.2,1.3.4,2.1.4Z"/>
    <path class="st2" d="M639.1,225.7v-27.3h7.1v4.8h.3c.5-1.7,1.3-3,2.5-3.8,1.2-.9,2.5-1.3,4.1-1.3s.8,0,1.2,0c.4,0,.8.1,1.1.2v6.5c-.3-.1-.8-.2-1.4-.3-.6,0-1.2,0-1.8,0-1.1,0-2.1.2-3,.7-.9.5-1.6,1.1-2.1,2s-.7,1.9-.7,3v15.5h-7.3Z"/>
    <path class="st2" d="M674,198.4v5.6h-16.2v-5.6h16.2ZM661.6,191.9h7.3v25.8c0,.9.2,1.5.6,1.9s1,.6,1.9.6.7,0,1.2-.1c.5,0,.9-.1,1.1-.2l1,5.5c-.8.2-1.6.4-2.4.5s-1.6.1-2.3.1c-2.7,0-4.8-.7-6.3-2-1.4-1.3-2.2-3.2-2.2-5.7v-26.4Z"/>
    <path class="st2" d="M690.6,226.2c-2.8,0-5.2-.6-7.2-1.7-2-1.1-3.6-2.8-4.7-4.9s-1.6-4.6-1.6-7.5.5-5.3,1.6-7.4c1.1-2.1,2.6-3.8,4.6-5,2-1.2,4.3-1.8,6.9-1.8s3.5.3,5,.9c1.5.6,2.9,1.4,4.1,2.6s2.1,2.6,2.7,4.3c.7,1.7,1,3.8,1,6.1v2.1h-22.9v-4.6h19.3l-3.4,1.2c0-1.4-.2-2.6-.6-3.7s-1.1-1.9-1.9-2.4c-.9-.6-1.9-.9-3.2-.9s-2.3.3-3.2.9-1.6,1.4-2,2.4c-.5,1-.7,2.1-.7,3.4v3.2c0,1.6.3,2.9.8,4s1.3,1.9,2.2,2.4,2.1.8,3.3.8,1.6-.1,2.3-.4c.7-.2,1.3-.6,1.8-1.1.5-.5.9-1.1,1.1-1.8l6.6,1.2c-.4,1.5-1.2,2.8-2.3,3.9-1.1,1.1-2.5,2-4.1,2.6s-3.5.9-5.7.9Z"/>
  </g>
</svg>