<?xml version="1.0" encoding="UTF-8"?>
<svg id="Camada_1" data-name="Camada 1" xmlns="http://www.w3.org/2000/svg" xmlns:xlink="http://www.w3.org/1999/xlink" viewBox="0 0 1080 1920">
  <defs>
    <style>
      .cls-1 {
        fill: url(#Gradiente_sem_nome_5);
      }

      .cls-2 {
        fill: url(#Gradiente_sem_nome_2);
      }

      .cls-2, .cls-3 {
        fill-opacity: .1;
      }

      .cls-4, .cls-5 {
        fill: #fff;
      }

      .cls-6 {
        fill: url(#Gradiente_sem_nome_28-2);
        fill-opacity: .6;
      }

      .cls-5, .cls-7 {
        fill-rule: evenodd;
      }

      .cls-3 {
        fill: url(#Gradiente_sem_nome_4);
      }

      .cls-7 {
        fill: #f50000;
      }

      .cls-8 {
        opacity: .66;
      }

      .cls-9 {
        fill: url(#Gradiente_sem_nome_3);
      }

      .cls-10 {
        fill: rgba(255, 255, 255, .6);
      }

      .cls-11 {
        fill: url(#Gradiente_sem_nome_28);
      }
    </style>
    <linearGradient id="Gradiente_sem_nome_28" data-name="Gradiente sem nome 28" x1="0" y1="960" x2="1080" y2="960" gradientUnits="userSpaceOnUse">
      <stop offset="0" stop-color="#2563eb"/>
      <stop offset="1" stop-color="#ff0356"/>
    </linearGradient>
    <linearGradient id="Gradiente_sem_nome_28-2" data-name="Gradiente sem nome 28" x1="3.22" y1="960.14" x2="1018.79" y2="963.66" gradientTransform="translate(0 1922) scale(1 -1)" xlink:href="#Gradiente_sem_nome_28"/>
    <linearGradient id="Gradiente_sem_nome_2" data-name="Gradiente sem nome 2" x1="123.19" y1="214.98" x2="244.18" y2="214.98" gradientTransform="translate(0 1922) scale(1 -1)" gradientUnits="userSpaceOnUse">
      <stop offset=".03" stop-color="#00c4cc"/>
      <stop offset=".52" stop-color="#5a32fa"/>
      <stop offset="1" stop-color="#7d2ae8"/>
    </linearGradient>
    <linearGradient id="Gradiente_sem_nome_3" data-name="Gradiente sem nome 3" x1="-703.14" y1="1446.66" x2="567.28" y2="-317.82" gradientTransform="translate(0 1922) scale(1 -1)" gradientUnits="userSpaceOnUse">
      <stop offset=".19" stop-color="#fff"/>
      <stop offset=".84" stop-color="#fff" stop-opacity="0"/>
    </linearGradient>
    <linearGradient id="Gradiente_sem_nome_4" data-name="Gradiente sem nome 4" x1="533.01" y1="214.98" x2="963.93" y2="214.97" gradientTransform="translate(0 1922) scale(1 -1)" gradientUnits="userSpaceOnUse">
      <stop offset=".03" stop-color="#00c4cc"/>
      <stop offset=".52" stop-color="#5a32fa"/>
      <stop offset="1" stop-color="#7d2ae8"/>
    </linearGradient>
    <linearGradient id="Gradiente_sem_nome_5" data-name="Gradiente sem nome 5" x1="-410.14" y1="1657.63" x2="860.29" y2="-106.85" gradientTransform="translate(0 1922) scale(1 -1)" gradientUnits="userSpaceOnUse">
      <stop offset=".19" stop-color="#fff"/>
      <stop offset=".84" stop-color="#fff" stop-opacity="0"/>
    </linearGradient>
  </defs>
  <g>
    <rect class="cls-4" width="1080" height="1920" rx="22" ry="22"/>
    <rect class="cls-10" width="1080" height="1920" rx="22" ry="22"/>
  </g>
  <g class="cls-8">
    <rect class="cls-11" width="1080" height="1920" rx="22" ry="22"/>
    <rect class="cls-6" width="1080" height="1920" rx="22" ry="22"/>
  </g>
  <g>
    <path class="cls-5" d="M183.6,149c-15.79,0-17.76.07-23.96.35-19.08,2.32-31.93,15.24-33.81,34.02-.29,6.24-.35,8.22-.35,24.11s.07,17.87.35,24.11c1.44,18.18,14.31,30.85,33.81,34.02,6.2.29,8.18.35,23.96.35,15.76-.21,17.33-.14,20.77-.35,19-1.12,34.9-14.07,37.01-34.02.29-6.24.35-8.22.35-24.11s-.07-17.87-.35-24.11c-1.93-18.58-15.14-31.74-33.81-34.02-6.2-.29-8.18-.35-23.96-.35Z"/>
    <path class="cls-7" d="M183.78,163.31c-11.93,0-13.43.05-18.11.26-4.68.22-7.86.96-10.67,2.04-2.89,1.12-5.34,2.63-7.78,5.07-2.44,2.44-3.95,4.89-5.07,7.78-1.09,2.8-1.83,5.99-2.04,10.66-.22,4.68-.26,6.18-.26,18.11s.05,13.43.26,18.11c.22,4.68.96,7.87,2.04,10.67,1.12,2.89,2.63,5.34,5.07,7.78,2.44,2.44,4.89,3.95,7.78,5.07,2.8,1.09,5.99,1.83,10.67,2.04,4.68.22,6.18.26,18.11.26s13.43-.06,18.11-.26c4.68-.22,7.87-.96,10.66-2.04,2.89-1.12,5.34-2.63,7.78-5.07,2.44-2.44,3.95-4.89,5.07-7.78,1.09-2.8,1.83-5.99,2.04-10.67.22-4.68.27-6.18.27-18.11s-.06-13.43-.27-18.11c-.22-4.68-.96-7.87-2.04-10.66-1.12-2.89-2.62-5.34-5.07-7.78-2.44-2.44-4.89-3.95-7.78-5.07-2.8-1.09-5.99-1.83-10.66-2.04-4.69-.22-6.18-.26-18.11-.26ZM183.78,171.22c11.73,0,13.13.05,17.76.26,4.29.2,6.61.91,8.16,1.52,2.05.8,3.51,1.75,5.05,3.28s2.49,3,3.28,5.05c.6,1.55,1.32,3.87,1.52,8.16.21,4.64.26,6.02.26,17.76s-.06,13.13-.28,17.75c-.22,4.28-.93,6.61-1.54,8.16-.83,2.05-1.76,3.51-3.3,5.05-1.54,1.54-3.02,2.49-5.05,3.28-1.54.6-3.9,1.32-8.18,1.52-4.67.21-6.04.26-17.79.26s-13.13-.05-17.8-.27c-4.28-.22-6.64-.93-8.18-1.54-2.09-.82-3.52-1.76-5.05-3.3-1.54-1.54-2.53-3.02-3.3-5.05-.6-1.54-1.32-3.9-1.54-8.18-.17-4.61-.22-6.04-.22-17.74s.05-13.13.22-17.79c.22-4.28.93-6.65,1.54-8.18.77-2.09,1.76-3.51,3.3-5.05,1.54-1.54,2.97-2.53,5.05-3.3,1.54-.6,3.84-1.32,8.13-1.54,4.67-.16,6.04-.22,17.79-.22l.17.12ZM183.78,184.68c-12.47,0-22.56,10.11-22.56,22.56s10.1,22.56,22.56,22.56,22.56-10.1,22.56-22.56-10.11-22.56-22.56-22.56ZM183.78,221.89c-8.09,0-14.64-6.56-14.64-14.65s6.55-14.65,14.64-14.65,14.65,6.56,14.65,14.65-6.56,14.65-14.65,14.65ZM212.51,183.79c0,2.91-2.36,5.27-5.27,5.27s-5.27-2.36-5.27-5.27,2.36-5.27,5.27-5.27,5.27,2.36,5.27,5.27Z"/>
  </g>
  <path class="cls-4" d="M183.6,1767.42c33.41,0,60.5-27.09,60.5-60.5s-27.08-60.5-60.5-60.5-60.5,27.09-60.5,60.5,27.09,60.5,60.5,60.5Z"/>
  <path class="cls-2" d="M183.6,1767.42c33.41,0,60.5-27.09,60.5-60.5s-27.08-60.5-60.5-60.5-60.5,27.09-60.5,60.5,27.09,60.5,60.5,60.5Z"/>
  <path class="cls-9" d="M183.6,1767.42c33.41,0,60.5-27.09,60.5-60.5s-27.08-60.5-60.5-60.5-60.5,27.09-60.5,60.5,27.09,60.5,60.5,60.5Z"/>
  <path class="cls-4" d="M332.32,1669.12c-20.88,0-37.81,16.93-37.81,37.81s16.93,37.81,37.81,37.81h592.36c20.88,0,37.81-16.93,37.81-37.81s-16.93-37.81-37.81-37.81H332.32Z"/>
  <path class="cls-3" d="M332.32,1669.12c-20.88,0-37.81,16.93-37.81,37.81s16.93,37.81,37.81,37.81h592.36c20.88,0,37.81-16.93,37.81-37.81s-16.93-37.81-37.81-37.81H332.32Z"/>
  <path class="cls-1" d="M332.32,1669.12c-20.88,0-37.81,16.93-37.81,37.81s16.93,37.81,37.81,37.81h592.36c20.88,0,37.81-16.93,37.81-37.81s-16.93-37.81-37.81-37.81H332.32Z"/>
</svg>